<svg width="43" height="37" viewBox="0 0 43 37" fill="none" xmlns="http://www.w3.org/2000/svg">
<path d="M24.2871 36.1855L10.5176 25.9277H0V10.2588H10.5156L24.2871 0V36.1855ZM40.165 3.72852C41.2695 3.72852 42.1649 4.62403 42.165 5.72852V30.4551C42.1649 31.5595 41.2695 32.4551 40.165 32.4551C39.0607 32.4549 38.1652 31.5594 38.165 30.4551V5.72852C38.1651 4.62413 39.0607 3.72868 40.165 3.72852ZM33.2266 8.95117C34.3309 8.95142 35.2266 9.84675 35.2266 10.9512V25.2314C35.2264 26.3357 34.3308 27.2312 33.2266 27.2314C32.1221 27.2314 31.2267 26.3359 31.2266 25.2314V10.9512C31.2266 9.8466 32.122 8.95117 33.2266 8.95117Z" fill="#808080"/>
</svg>
