<svg width="71" height="71" viewBox="0 0 71 71" fill="none" xmlns="http://www.w3.org/2000/svg">
<path d="M35.5 0C55.1061 0 71 15.8939 71 35.5C71 55.1061 55.1061 71 35.5 71C15.8939 71 0 55.1061 0 35.5C0 15.8939 15.8939 0 35.5 0ZM26.3799 34.7598C23.627 34.7598 20.9866 35.8542 19.04 37.8008C17.0935 39.7474 16 42.3878 16 45.1406C16.0001 46.7923 16.6564 48.376 17.8242 49.5439C18.9922 50.7119 20.5767 51.3682 22.2285 51.3682H47.1406C48.7923 51.3681 50.376 50.7119 51.5439 49.5439C52.7119 48.376 53.3681 46.7923 53.3682 45.1406C53.3682 42.3877 52.2747 39.7474 50.3281 37.8008C48.3815 35.8541 45.7413 34.7598 42.9883 34.7598H26.3799ZM34.6846 14C32.4822 14 30.3698 14.8753 28.8125 16.4326C27.2553 17.9898 26.38 20.1015 26.3799 22.3037C26.3799 24.5061 27.2552 26.6185 28.8125 28.1758C30.3698 29.7331 32.4822 30.6084 34.6846 30.6084C36.8868 30.6083 38.9984 29.7329 40.5557 28.1758C42.113 26.6185 42.9883 24.5061 42.9883 22.3037C42.9882 20.1015 42.1129 17.9898 40.5557 16.4326C38.9984 14.8754 36.8868 14.0001 34.6846 14Z" fill="#A3B9A7"/>
</svg>
