<svg width="77" height="77" viewBox="0 0 77 77" fill="none" xmlns="http://www.w3.org/2000/svg">
<path d="M42.5707 11.7705C43.5334 10.8082 44.8388 10.2676 46.2 10.2676C47.5612 10.2676 48.8666 10.8082 49.8292 11.7705L72.9292 34.8706C73.8916 35.8332 74.4322 37.1386 74.4322 38.4998C74.4322 39.861 73.8916 41.1664 72.9292 42.1291L49.8292 65.2291C48.8611 66.1642 47.5644 66.6816 46.2185 66.6699C44.8725 66.6582 43.585 66.1183 42.6332 65.1666C41.6815 64.2148 41.1416 62.9273 41.1299 61.5813C41.1182 60.2354 41.6356 58.9387 42.5707 57.9706L56.4666 43.6332H7.69998C6.33854 43.6332 5.03286 43.0923 4.07017 42.1296C3.10748 41.1669 2.56665 39.8613 2.56665 38.4998C2.56665 37.1384 3.10748 35.8327 4.07017 34.87C5.03286 33.9073 6.33854 33.3665 7.69998 33.3665H56.4666L42.5707 19.0291C41.6084 18.0664 41.0677 16.761 41.0677 15.3998C41.0677 14.0386 41.6084 12.7332 42.5707 11.7705Z" fill="white"/>
</svg>
