<svg width="17" height="19" viewBox="0 0 17 19" fill="none" xmlns="http://www.w3.org/2000/svg">
<path fill-rule="evenodd" clip-rule="evenodd" d="M13.6699 18.9668H2.63379L1.25391 3.55664H15.0498L13.6699 18.9668ZM5.00195 7.06641C4.7271 7.09127 4.52614 7.33477 4.55371 7.60938L5.40527 16.0547C5.43305 16.3292 5.67832 16.5323 5.95312 16.5078C6.22796 16.4829 6.42893 16.2394 6.40137 15.9648L5.5498 7.51953C5.52203 7.245 5.27678 7.04185 5.00195 7.06641ZM11.7412 7.06641C11.4664 7.04191 11.2211 7.24407 11.1934 7.51855L10.3418 15.9639C10.3142 16.2385 10.5152 16.4819 10.79 16.5068C11.0649 16.5314 11.3101 16.3283 11.3379 16.0537L12.1895 7.6084C12.2171 7.3338 12.0161 7.0913 11.7412 7.06641ZM12.3418 0C12.4521 0.000100523 12.5419 0.0898674 12.542 0.200195V0.985352C12.542 1.09575 12.4522 1.18545 12.3418 1.18555H16.1035C16.2139 1.18555 16.3035 1.27448 16.3037 1.38477V2.1709C16.3035 2.28118 16.2138 2.37012 16.1035 2.37012H0.199219C0.0890849 2.36988 0.000200212 2.28104 0 2.1709V1.38477C0.000196368 1.27462 0.0890821 1.18578 0.199219 1.18555H3.96289C3.85243 1.18555 3.7627 1.09581 3.7627 0.985352V0.200195C3.76277 0.0898055 3.85248 0 3.96289 0H12.3418Z" fill="#424242"/>
</svg>
