<svg width="29" height="30" viewBox="0 0 29 30" fill="none" xmlns="http://www.w3.org/2000/svg">
<path d="M4.11587 30H0.72633C0.533695 30 0.34895 29.9153 0.212737 29.7646C0.0765238 29.6139 0 29.4095 0 29.1964V4.01786C0 3.80474 0.0765238 3.60034 0.212737 3.44965C0.34895 3.29895 0.533695 3.21429 0.72633 3.21429H4.11587C4.3085 3.21429 4.49325 3.29895 4.62946 3.44965C4.76568 3.60034 4.8422 3.80474 4.8422 4.01786V29.1964C4.8422 29.4095 4.76568 29.6139 4.62946 29.7646C4.49325 29.9153 4.3085 30 4.11587 30ZM13.5582 11.7857V8.30357C13.5582 8.09045 13.4816 7.88606 13.3454 7.73536C13.2092 7.58466 13.0245 7.5 12.8318 7.5H6.53697C6.34433 7.5 6.15959 7.58466 6.02338 7.73536C5.88716 7.88606 5.81064 8.09045 5.81064 8.30357V11.7857H13.5582ZM5.81064 25.7143V29.1964C5.81064 29.4095 5.88716 29.6139 6.02338 29.7646C6.15959 29.9153 6.34433 30 6.53697 30H12.8318C13.0245 30 13.2092 29.9153 13.3454 29.7646C13.4816 29.6139 13.5582 29.4095 13.5582 29.1964V25.7143H5.81064ZM5.81064 13.9286H13.5582V23.5714H5.81064V13.9286ZM19.6109 30H15.2529C15.0603 30 14.8755 29.9153 14.7393 29.7646C14.6031 29.6139 14.5266 29.4095 14.5266 29.1964V0.803571C14.5266 0.590451 14.6031 0.386059 14.7393 0.235361C14.8755 0.0846616 15.0603 0 15.2529 0H19.6109C19.8035 0 19.9883 0.0846616 20.1245 0.235361C20.2607 0.386059 20.3372 0.590451 20.3372 0.803571V29.1964C20.3372 29.4095 20.2607 29.6139 20.1245 29.7646C19.9883 29.9153 19.8035 30 19.6109 30ZM21.3662 4.60045L23.182 29.2319C23.1901 29.3399 23.2178 29.445 23.2635 29.5409C23.3093 29.6367 23.372 29.7214 23.4481 29.7897C23.5241 29.858 23.6119 29.9086 23.7061 29.9384C23.8003 29.9682 23.8989 29.9766 23.9961 29.9632L28.3638 29.3605C28.5497 29.3348 28.7195 29.2305 28.8376 29.0695C28.9557 28.9085 29.013 28.7033 28.9975 28.4966L27.1768 3.96496C27.1688 3.85841 27.1417 3.7547 27.097 3.65991C27.0523 3.56512 26.9909 3.48115 26.9165 3.41292C26.8421 3.3447 26.7561 3.29359 26.6636 3.26258C26.5711 3.23158 26.474 3.22131 26.3779 3.23237L22.012 3.73527C21.8236 3.75779 21.6507 3.86086 21.53 4.0225C21.4094 4.18413 21.3506 4.39153 21.3662 4.60045Z" fill="#424242"/>
</svg>
