<svg width="26" height="21" viewBox="0 0 26 21" fill="none" xmlns="http://www.w3.org/2000/svg">
<path fill-rule="evenodd" clip-rule="evenodd" d="M18.4827 7.20581C20.7127 7.9234 22.0117 10.2721 21.401 12.561L21.3367 12.7794C21.1336 13.4102 20.7996 13.966 20.3738 14.4257C20.4838 14.5054 20.5789 14.6091 20.6513 14.7342L22.8881 18.5977C23.1644 19.0755 23.0012 19.6873 22.5236 19.964C22.0456 20.2406 21.4331 20.0771 21.1564 19.5992L18.9205 15.7359C18.8776 15.6618 18.8466 15.5839 18.8244 15.5051C17.9544 15.8681 16.9627 15.9594 15.9814 15.6976L15.7631 15.6333C13.6051 14.9388 12.319 12.7166 12.7918 10.4994L12.8448 10.2781C13.4752 7.91543 15.9018 6.5112 18.2644 7.14148L18.4827 7.20581ZM17.7488 9.07388C16.4534 8.72835 15.1229 9.49827 14.7772 10.7937C14.4317 12.089 15.2017 13.4195 16.497 13.7652C17.7925 14.1109 19.1229 13.3408 19.4686 12.0454C19.8142 10.75 19.0443 9.41954 17.7488 9.07388Z" fill="#424242"/>
<line x1="1" y1="1" x2="21" y2="1" stroke="#424242" stroke-width="2" stroke-linecap="round"/>
<line x1="1" y1="10" x2="9" y2="10" stroke="#424242" stroke-width="2" stroke-linecap="round"/>
<line x1="1" y1="19" x2="13" y2="19" stroke="#424242" stroke-width="2" stroke-linecap="round"/>
</svg>
