<svg width="3" height="11" viewBox="0 0 3 11" fill="none" xmlns="http://www.w3.org/2000/svg">
<path d="M1.06055 2.10938C0.869141 2.10938 0.691406 2.06055 0.527344 1.96289C0.363281 1.86523 0.234375 1.73633 0.140625 1.57617C0.046875 1.41211 0 1.23438 0 1.04297C0 0.859375 0.046875 0.6875 0.140625 0.527344C0.234375 0.363281 0.363281 0.234375 0.527344 0.140625C0.691406 0.046875 0.869141 0 1.06055 0C1.24805 0 1.42188 0.046875 1.58203 0.140625C1.74219 0.234375 1.87109 0.363281 1.96875 0.527344C2.07031 0.6875 2.12109 0.859375 2.12109 1.04297C2.12109 1.23438 2.07031 1.41211 1.96875 1.57617C1.87109 1.73633 1.74219 1.86523 1.58203 1.96289C1.42188 2.06055 1.24805 2.10938 1.06055 2.10938ZM1.06055 6.10938C0.869141 6.10938 0.691406 6.06055 0.527344 5.96289C0.363281 5.86523 0.234375 5.73633 0.140625 5.57617C0.046875 5.41211 0 5.23438 0 5.04297C0 4.85938 0.046875 4.6875 0.140625 4.52734C0.234375 4.36328 0.363281 4.23438 0.527344 4.14062C0.691406 4.04688 0.869141 4 1.06055 4C1.24805 4 1.42188 4.04688 1.58203 4.14062C1.74219 4.23438 1.87109 4.36328 1.96875 4.52734C2.07031 4.6875 2.12109 4.85938 2.12109 5.04297C2.12109 5.23438 2.07031 5.41211 1.96875 5.57617C1.87109 5.73633 1.74219 5.86523 1.58203 5.96289C1.42188 6.06055 1.24805 6.10938 1.06055 6.10938ZM1.06055 10.1094C0.869141 10.1094 0.691406 10.0605 0.527344 9.96289C0.363281 9.86523 0.234375 9.73633 0.140625 9.57617C0.046875 9.41211 0 9.23438 0 9.04297C0 8.85938 0.046875 8.6875 0.140625 8.52734C0.234375 8.36328 0.363281 8.23438 0.527344 8.14062C0.691406 8.04688 0.869141 8 1.06055 8C1.24805 8 1.42188 8.04688 1.58203 8.14062C1.74219 8.23438 1.87109 8.36328 1.96875 8.52734C2.07031 8.6875 2.12109 8.85938 2.12109 9.04297C2.12109 9.23438 2.07031 9.41211 1.96875 9.57617C1.87109 9.73633 1.74219 9.86523 1.58203 9.96289C1.42188 10.0605 1.24805 10.1094 1.06055 10.1094Z" fill="#424242"/>
</svg>
