<svg width="38" height="38" viewBox="0 0 38 38" fill="none" xmlns="http://www.w3.org/2000/svg">
<circle cx="19" cy="19" r="19" fill="black"/>
<path fill-rule="evenodd" clip-rule="evenodd" d="M14.5556 12.4444C14.5556 11.2657 15.0238 10.1352 15.8573 9.30175C16.6908 8.46825 17.8213 8 19 8C20.1787 8 21.3092 8.46825 22.1427 9.30175C22.9762 10.1352 23.4444 11.2657 23.4444 12.4444C23.4444 13.6232 22.9762 14.7536 22.1427 15.5871C21.3092 16.4206 20.1787 16.8889 19 16.8889C17.8213 16.8889 16.6908 16.4206 15.8573 15.5871C15.0238 14.7536 14.5556 13.6232 14.5556 12.4444ZM14.5556 19.1111C13.0821 19.1111 11.6691 19.6964 10.6272 20.7383C9.58532 21.7802 9 23.1932 9 24.6667C9 25.5507 9.35119 26.3986 9.97631 27.0237C10.6014 27.6488 11.4493 28 12.3333 28H25.6667C26.5507 28 27.3986 27.6488 28.0237 27.0237C28.6488 26.3986 29 25.5507 29 24.6667C29 23.1932 28.4147 21.7802 27.3728 20.7383C26.3309 19.6964 24.9179 19.1111 23.4444 19.1111H14.5556Z" fill="white"/>
</svg>
