<svg width="20" height="20" viewBox="0 0 20 20" fill="none" xmlns="http://www.w3.org/2000/svg">
<path d="M8.51426 3.34731C11.0571 3.53914 12.9636 5.75596 12.772 8.29881L12.7483 8.53597C12.6585 9.24485 12.4086 9.89778 12.0407 10.4638C12.1472 10.5205 12.2455 10.5971 12.3289 10.6941L15.4197 14.2894C15.7796 14.7081 15.732 15.3394 15.3134 15.6994C14.8946 16.0594 14.2634 16.0117 13.9033 15.593L10.8125 11.9978C10.764 11.9415 10.7236 11.881 10.6899 11.8182C9.86913 12.3545 8.87262 12.6359 7.81956 12.5565L7.58337 12.5328C5.15983 12.2259 3.37701 10.0676 3.56284 7.60411C3.7549 5.06146 5.97158 3.15576 8.51426 3.34731ZM8.36382 5.34165C6.92258 5.23318 5.66615 6.31334 5.55718 7.75455C5.44844 9.19599 6.52864 10.4532 7.97001 10.5622C9.4116 10.6709 10.6689 9.58996 10.7777 8.14836C10.8862 6.70696 9.80526 5.45038 8.36382 5.34165Z" fill="#424242"/>
</svg>
