<svg width="39" height="33" viewBox="0 0 39 33" fill="none" xmlns="http://www.w3.org/2000/svg">
<path d="M21.9834 32.7539L9.52051 23.4697H0V9.28711H9.5166L21.9834 0V32.7539ZM36.5449 3.37598C37.6495 3.37598 38.5449 4.27143 38.5449 5.37598V27.377C38.5449 28.4815 37.6495 29.377 36.5449 29.377C35.4404 29.3769 34.5449 28.4815 34.5449 27.377V5.37598C34.5449 4.27144 35.4404 3.37599 36.5449 3.37598ZM30.2637 8.10352C31.3682 8.10352 32.2637 8.99895 32.2637 10.1035V22.6494C32.2635 23.7539 31.3681 24.6494 30.2637 24.6494C29.1593 24.6493 28.2638 23.7538 28.2637 22.6494V10.1035C28.2637 8.99899 29.1592 8.10359 30.2637 8.10352Z" fill="#515050"/>
</svg>
