<svg width="15" height="21" viewBox="0 0 15 21" fill="none" xmlns="http://www.w3.org/2000/svg">
<path d="M12.6387 2.36035L15 4.72168V19.5547C14.9998 20.1067 14.552 20.5545 14 20.5547H1C0.447858 20.5547 0.000230959 20.1068 0 19.5547V1C0 0.447715 0.447715 8.97219e-09 1 0H10.2773L12.6387 2.36035ZM2.77539 9.66602L4.71387 15.8887H6.18066L7.52246 11.6748L8.82031 15.8887H10.2871L12.2246 9.66602H10.918L9.54004 14.0752L8.18945 9.66602H6.91797L5.53125 14.0391L4.19824 9.66602H2.77539ZM9.16602 5.83301H13.333L9.16602 1.66602V5.83301Z" fill="#9E9E9E"/>
</svg>
